<?xml version="1.0" encoding="UTF-8"?>
<svg xmlns="http://www.w3.org/2000/svg" xmlns:xlink="http://www.w3.org/1999/xlink" viewBox="0 0 50 50" width="50px" height="50px">
<g id="surface148089533">
<path style=" stroke:none;fill-rule:nonzero;fill:rgb(51.764709%,16.470589%,49.019608%);fill-opacity:1;" d="M 25 8 C 34.390625 8 42 15.609375 42 25 C 42 32.546875 37.078125 38.945312 30.269531 41.164062 C 30.273438 41.15625 30.277344 41.148438 30.277344 41.148438 C 30.277344 41.148438 29.128906 40.609375 29.152344 39.648438 C 29.179688 38.59375 29.152344 36.128906 29.152344 35.222656 C 29.152344 33.671875 28.171875 32.570312 28.171875 32.570312 C 28.171875 32.570312 35.878906 32.65625 35.878906 24.429688 C 35.878906 21.257812 34.21875 19.605469 34.21875 19.605469 C 34.21875 19.605469 35.089844 16.21875 33.917969 14.78125 C 32.601562 14.636719 30.25 16.035156 29.242188 16.691406 C 29.242188 16.691406 27.648438 16.035156 25 16.035156 C 22.347656 16.035156 20.753906 16.691406 20.753906 16.691406 C 19.75 16.035156 17.394531 14.636719 16.078125 14.78125 C 14.90625 16.21875 15.777344 19.605469 15.777344 19.605469 C 15.777344 19.605469 14.117188 21.257812 14.117188 24.429688 C 14.117188 32.65625 21.828125 32.570312 21.828125 32.570312 C 21.828125 32.570312 21.050781 33.445312 20.882812 34.738281 C 20.34375 34.921875 19.550781 35.144531 18.914062 35.144531 C 17.238281 35.144531 15.96875 33.519531 15.5 32.765625 C 15.039062 32.023438 14.097656 31.402344 13.21875 31.402344 C 12.640625 31.402344 12.359375 31.691406 12.359375 32.019531 C 12.359375 32.351562 13.171875 32.582031 13.707031 33.195312 C 14.835938 34.488281 14.816406 37.398438 18.839844 37.398438 C 19.273438 37.398438 20.167969 37.289062 20.839844 37.199219 C 20.835938 38.117188 20.832031 39.082031 20.847656 39.648438 C 20.871094 40.605469 19.722656 41.144531 19.722656 41.144531 C 19.722656 41.144531 19.726562 41.15625 19.730469 41.160156 C 12.921875 38.945312 8 32.546875 8 25 C 8 15.609375 15.609375 8 25 8 Z M 25 8 "/>
</g>
</svg>
