<?xml version="1.0" encoding="UTF-8"?>
<svg xmlns="http://www.w3.org/2000/svg" xmlns:xlink="http://www.w3.org/1999/xlink" viewBox="0 0 48 48" width="48px" height="48px">
<g id="surface148333460">
<path style=" stroke:none;fill-rule:nonzero;fill:rgb(51.764709%,16.470589%,49.019608%);fill-opacity:1;" d="M 24 4 C 12.953125 4 4 12.953125 4 24 C 4 35.046875 12.953125 44 24 44 C 35.046875 44 44 35.046875 44 24 C 44 12.953125 35.046875 4 24 4 Z M 24 4 "/>
<path style=" stroke:none;fill-rule:nonzero;fill:rgb(100%,100%,100%);fill-opacity:1;" d="M 14 19 L 18 19 L 18 34 L 14 34 Z M 15.988281 17 L 15.964844 17 C 14.773438 17 14 16.109375 14 15 C 14 13.863281 14.796875 13 16.011719 13 C 17.226562 13 17.976562 13.863281 18 15 C 18 16.109375 17.226562 17 15.988281 17 Z M 35 24.5 C 35 21.460938 32.539062 19 29.5 19 C 27.636719 19 25.996094 19.929688 25 21.34375 L 25 19 L 21 19 L 21 34 L 25 34 L 25 26 C 25 24.34375 26.34375 23 28 23 C 29.65625 23 31 24.34375 31 26 L 31 34 L 35 34 C 35 34 35 24.921875 35 24.5 Z M 35 24.5 "/>
</g>
</svg>
