<?xml version="1.0" encoding="UTF-8"?>
<svg xmlns="http://www.w3.org/2000/svg" xmlns:xlink="http://www.w3.org/1999/xlink" viewBox="0 0 48 48" width="48px" height="48px">
<g id="surface148323733">
<path style=" stroke:none;fill-rule:nonzero;fill:rgb(51.764709%,16.470589%,49.019608%);fill-opacity:1;" d="M 1 5 L 7 9 L 7 29 L 1 25 Z M 1 5 "/>
<path style=" stroke:none;fill-rule:nonzero;fill:rgb(51.764709%,16.470589%,49.019608%);fill-opacity:1;" d="M 47 20 L 41 24 L 41 37 L 47 33 Z M 47 20 "/>
<path style=" stroke:none;fill-rule:nonzero;fill:rgb(51.764709%,16.470589%,49.019608%);fill-opacity:1;" d="M 47 6 L 41 10 L 41 17 L 47 13 Z M 47 6 "/>
<path style=" stroke:none;fill-rule:nonzero;fill:rgb(51.764709%,16.470589%,49.019608%);fill-opacity:1;" d="M 35 5 L 29 9 L 29 29 L 35 25 Z M 35 5 "/>
<path style=" stroke:none;fill-rule:nonzero;fill:rgb(51.764709%,16.470589%,49.019608%);fill-opacity:1;" d="M 1 12 L 18 23 L 18 16 L 1 5 Z M 1 12 "/>
<path style=" stroke:none;fill-rule:nonzero;fill:rgb(51.764709%,16.470589%,49.019608%);fill-opacity:1;" d="M 35 12 L 18 23 L 18 16 L 35 5 Z M 35 12 "/>
<path style=" stroke:none;fill-rule:nonzero;fill:rgb(51.764709%,16.470589%,49.019608%);fill-opacity:1;" d="M 35 26 L 18 37 L 18 30 L 35 19 Z M 35 26 "/>
<path style=" stroke:none;fill-rule:nonzero;fill:rgb(51.764709%,16.470589%,49.019608%);fill-opacity:1;" d="M 47 34 L 30 45 L 30 38 L 47 27 Z M 47 34 "/>
<path style=" stroke:none;fill-rule:nonzero;fill:rgb(51.764709%,16.470589%,49.019608%);fill-opacity:1;" d="M 30 37.765625 L 18 30 L 18 37 L 30 44.765625 Z M 30 37.765625 "/>
</g>
</svg>
