<?xml version="1.0" encoding="UTF-8"?>
<svg xmlns="http://www.w3.org/2000/svg" xmlns:xlink="http://www.w3.org/1999/xlink" viewBox="0 0 32 32" width="32px" height="32px">
<g id="surface148065601">
<path style=" stroke:none;fill-rule:nonzero;fill:rgb(51.764709%,16.470589%,49.019608%);fill-opacity:1;" d="M 16 2.046875 C 15.472656 2.046875 14.949219 2.183594 14.480469 2.460938 L 5.480469 7.757812 C 4.566406 8.292969 4 9.285156 4 10.34375 L 4 22.011719 C 4 23.109375 4.597656 24.117188 5.5625 24.644531 L 8.511719 26.253906 C 8.964844 26.5 9.457031 26.621094 9.949219 26.621094 C 10.476562 26.621094 11 26.480469 11.476562 26.199219 C 12.398438 25.652344 12.945312 24.6875 12.945312 23.617188 L 12.945312 10.929688 L 10.945312 10.929688 L 10.945312 23.617188 C 10.945312 24.132812 10.605469 24.390625 10.457031 24.476562 C 10.3125 24.5625 9.917969 24.742188 9.46875 24.496094 L 6.523438 22.890625 C 6.203125 22.714844 6 22.378906 6 22.011719 L 6 10.34375 C 6 9.992188 6.1875 9.660156 6.492188 9.480469 L 15.492188 4.183594 C 15.804688 4 16.195312 4 16.507812 4.183594 L 25.507812 9.480469 C 25.808594 9.660156 26 9.992188 26 10.34375 L 26 22.019531 C 26 22.378906 25.800781 22.71875 25.480469 22.898438 L 16.480469 27.800781 C 16.179688 27.960938 15.820312 27.960938 15.519531 27.800781 L 13.761719 26.839844 C 13.421875 27.261719 13 27.621094 12.5 27.921875 C 12.339844 28.023438 12.179688 28.101562 12.019531 28.160156 L 14.558594 29.558594 C 15.019531 29.796875 15.5 29.921875 16 29.921875 C 16.5 29.921875 16.980469 29.796875 17.441406 29.558594 L 26.441406 24.640625 C 27.402344 24.121094 28 23.121094 28 22.019531 L 28 10.34375 C 28 9.285156 27.433594 8.292969 26.523438 7.757812 L 17.523438 2.460938 C 17.054688 2.183594 16.527344 2.046875 16 2.046875 Z M 18.902344 10.636719 C 15.742188 10.636719 14.140625 11.738281 14.140625 13.910156 C 14.140625 16.371094 16.972656 16.734375 18.335938 16.910156 C 18.53125 16.9375 18.707031 16.957031 18.84375 16.984375 L 19.441406 17.089844 C 21.519531 17.4375 22 17.671875 22 18.34375 C 22 18.667969 22 19.648438 18.902344 19.648438 C 16.277344 19.648438 15.738281 18.871094 15.738281 17.699219 L 13.738281 17.699219 C 13.738281 19.503906 14.632812 21.648438 18.902344 21.648438 C 23.113281 21.648438 24 19.851562 24 18.34375 C 24 15.828125 21.554688 15.414062 19.773438 15.113281 L 19.199219 15.015625 C 19.035156 14.984375 18.824219 14.957031 18.589844 14.929688 C 17.316406 14.765625 16.140625 14.53125 16.140625 13.914062 C 16.140625 13.46875 16.136719 12.640625 18.902344 12.636719 C 20.742188 12.636719 21.675781 13.242188 21.675781 14.433594 L 23.675781 14.433594 C 23.675781 12.597656 22.417969 10.636719 18.902344 10.636719 Z M 18.902344 10.636719 "/>
</g>
</svg>
