<?xml version="1.0" encoding="UTF-8"?>
<svg xmlns="http://www.w3.org/2000/svg" xmlns:xlink="http://www.w3.org/1999/xlink" viewBox="0 0 40 40" width="40px" height="40px">
<g id="surface147975915">
<path style=" stroke:none;fill-rule:nonzero;fill:rgb(51.764709%,16.470589%,49.019608%);fill-opacity:1;" d="M 23.25 20 C 23.25 21.796875 21.796875 23.25 20 23.25 C 18.203125 23.25 16.75 21.796875 16.75 20 C 16.75 18.203125 18.203125 16.75 20 16.75 C 21.796875 16.75 23.25 18.203125 23.25 20 Z M 23.25 20 "/>
<path style=" stroke:none;fill-rule:nonzero;fill:rgb(51.764709%,16.470589%,49.019608%);fill-opacity:1;" d="M 20 23.5 C 18.070312 23.5 16.5 21.929688 16.5 20 C 16.5 18.070312 18.070312 16.5 20 16.5 C 21.929688 16.5 23.5 18.070312 23.5 20 C 23.5 21.929688 21.929688 23.5 20 23.5 Z M 20 17 C 18.34375 17 17 18.34375 17 20 C 17 21.65625 18.34375 23 20 23 C 21.65625 23 23 21.65625 23 20 C 23 18.34375 21.65625 17 20 17 Z M 20 17 "/>
<path style=" stroke:none;fill-rule:nonzero;fill:rgb(51.764709%,16.470589%,49.019608%);fill-opacity:1;" d="M 12.238281 37.75 C 11.382812 37.75 10.601562 37.554688 9.921875 37.167969 C 8.78125 36.523438 7.992188 35.410156 7.578125 33.859375 C 7.09375 32.054688 7.152344 29.660156 7.742188 26.921875 C 2.976562 25.28125 0.25 22.765625 0.25 20 C 0.25 17.234375 2.976562 14.71875 7.742188 13.078125 C 7.152344 10.339844 7.09375 7.945312 7.578125 6.140625 C 7.992188 4.589844 8.78125 3.476562 9.917969 2.832031 C 10.601562 2.445312 11.378906 2.25 12.234375 2.25 C 14.429688 2.25 17.179688 3.613281 20 6.097656 C 22.820312 3.617188 25.570312 2.253906 27.761719 2.253906 C 28.617188 2.253906 29.398438 2.449219 30.078125 2.835938 C 31.21875 3.480469 32.007812 4.589844 32.421875 6.140625 C 32.902344 7.941406 32.847656 10.339844 32.253906 13.078125 C 37.023438 14.71875 39.75 17.234375 39.75 20 C 39.75 22.765625 37.023438 25.28125 32.253906 26.921875 C 32.84375 29.660156 32.902344 32.058594 32.421875 33.859375 C 32.003906 35.410156 31.21875 36.519531 30.082031 37.164062 C 29.398438 37.550781 28.617188 37.746094 27.765625 37.746094 C 25.570312 37.746094 22.820312 36.382812 20 33.902344 C 17.179688 36.386719 14.429688 37.75 12.238281 37.75 Z M 9.667969 27.503906 C 9.171875 29.863281 9.117188 31.875 9.511719 33.34375 C 9.78125 34.355469 10.25 35.058594 10.90625 35.429688 C 11.285156 35.644531 11.730469 35.753906 12.238281 35.753906 C 13.933594 35.753906 16.167969 34.609375 18.546875 32.535156 C 17.355469 31.332031 16.191406 29.972656 15.082031 28.488281 C 13.167969 28.28125 11.347656 27.949219 9.667969 27.503906 Z M 21.453125 32.53125 C 23.832031 34.609375 26.066406 35.746094 27.761719 35.75 C 28.269531 35.75 28.714844 35.640625 29.09375 35.425781 C 29.75 35.054688 30.21875 34.355469 30.488281 33.34375 C 30.878906 31.875 30.824219 29.863281 30.328125 27.503906 C 28.648438 27.949219 26.828125 28.28125 24.914062 28.488281 C 23.804688 29.972656 22.644531 31.332031 21.453125 32.53125 Z M 17.78125 28.695312 C 18.507812 29.585938 19.253906 30.414062 20 31.167969 C 20.746094 30.414062 21.488281 29.585938 22.214844 28.695312 C 21.46875 28.730469 20.726562 28.75 20 28.75 C 19.273438 28.75 18.53125 28.730469 17.78125 28.695312 Z M 16.175781 26.589844 C 17.421875 26.695312 18.707031 26.75 20 26.75 C 21.292969 26.75 22.578125 26.695312 23.824219 26.589844 C 24.566406 25.546875 25.273438 24.457031 25.929688 23.34375 C 26.5625 22.265625 27.160156 21.140625 27.703125 20 C 27.160156 18.863281 26.566406 17.738281 25.929688 16.65625 C 25.277344 15.546875 24.566406 14.453125 23.824219 13.410156 C 22.578125 13.304688 21.292969 13.25 20 13.25 C 18.707031 13.25 17.421875 13.304688 16.175781 13.410156 C 15.429688 14.453125 14.722656 15.546875 14.066406 16.65625 C 13.433594 17.738281 12.835938 18.863281 12.292969 20 C 12.835938 21.136719 13.429688 22.261719 14.066406 23.34375 C 14.71875 24.449219 15.425781 25.542969 16.175781 26.589844 Z M 28.746094 22.390625 C 28.390625 23.0625 28.027344 23.722656 27.652344 24.355469 C 27.277344 24.996094 26.875 25.640625 26.460938 26.273438 C 27.648438 26.089844 28.78125 25.855469 29.84375 25.574219 C 29.550781 24.550781 29.179688 23.480469 28.746094 22.390625 Z M 10.152344 25.574219 C 11.214844 25.855469 12.351562 26.089844 13.535156 26.273438 C 13.117188 25.636719 12.71875 24.992188 12.34375 24.355469 C 11.96875 23.722656 11.605469 23.0625 11.25 22.390625 C 10.816406 23.476562 10.449219 24.546875 10.152344 25.574219 Z M 29.90625 20 C 30.671875 21.695312 31.292969 23.371094 31.761719 24.988281 C 35.464844 23.6875 37.75 21.785156 37.75 20 C 37.75 18.214844 35.464844 16.3125 31.761719 15.011719 C 31.296875 16.628906 30.671875 18.304688 29.90625 20 Z M 8.234375 15.011719 C 4.535156 16.3125 2.25 18.214844 2.25 20 C 2.25 21.785156 4.535156 23.6875 8.238281 24.988281 C 8.703125 23.371094 9.328125 21.695312 10.089844 20 C 9.324219 18.308594 8.703125 16.632812 8.234375 15.011719 Z M 10.152344 14.425781 C 10.449219 15.453125 10.816406 16.519531 11.25 17.609375 C 11.601562 16.9375 11.96875 16.28125 12.34375 15.644531 C 12.71875 15.003906 13.121094 14.363281 13.539062 13.726562 C 12.351562 13.910156 11.214844 14.144531 10.152344 14.425781 Z M 26.460938 13.726562 C 26.878906 14.363281 27.28125 15.007812 27.652344 15.644531 C 28.027344 16.277344 28.394531 16.9375 28.746094 17.609375 C 29.179688 16.523438 29.550781 15.453125 29.847656 14.425781 C 28.78125 14.144531 27.648438 13.90625 26.460938 13.726562 Z M 12.234375 4.25 C 11.730469 4.25 11.28125 4.355469 10.90625 4.570312 C 10.25 4.941406 9.78125 5.644531 9.507812 6.65625 C 9.117188 8.125 9.171875 10.140625 9.667969 12.496094 C 11.347656 12.050781 13.167969 11.71875 15.085938 11.511719 C 16.195312 10.027344 17.359375 8.667969 18.546875 7.46875 C 16.167969 5.390625 13.933594 4.25 12.234375 4.25 Z M 24.914062 11.511719 C 26.828125 11.71875 28.648438 12.050781 30.332031 12.496094 C 30.828125 10.136719 30.882812 8.125 30.488281 6.65625 C 30.21875 5.644531 29.75 4.945312 29.09375 4.574219 C 28.714844 4.359375 28.269531 4.25 27.761719 4.25 C 26.066406 4.25 23.832031 5.390625 21.453125 7.46875 C 22.644531 8.667969 23.804688 10.027344 24.914062 11.511719 Z M 20 11.25 C 20.726562 11.25 21.46875 11.269531 22.214844 11.304688 C 21.492188 10.417969 20.746094 9.589844 20 8.835938 C 19.253906 9.589844 18.511719 10.417969 17.785156 11.304688 C 18.53125 11.269531 19.273438 11.25 20 11.25 Z M 20 11.25 "/>
<path style=" stroke:none;fill-rule:nonzero;fill:rgb(51.764709%,16.470589%,49.019608%);fill-opacity:1;" d="M 12.234375 2.5 C 14.484375 2.5 17.234375 3.953125 20 6.433594 C 22.769531 3.957031 25.519531 2.503906 27.761719 2.503906 C 28.574219 2.503906 29.3125 2.6875 29.957031 3.050781 C 31.035156 3.664062 31.78125 4.722656 32.179688 6.203125 C 32.71875 8.164062 32.605469 10.574219 31.960938 13.246094 C 36.574219 14.785156 39.5 17.214844 39.5 20 C 39.5 22.785156 36.574219 25.214844 31.960938 26.757812 C 32.632812 29.640625 32.746094 32.117188 32.179688 33.796875 C 31.78125 35.277344 31.035156 36.335938 29.957031 36.949219 C 29.3125 37.3125 28.726562 37.5 27.917969 37.5 C 27.914062 37.5 27.707031 37.5 27.707031 37.5 C 25.460938 37.5 22.765625 36.046875 20 33.570312 C 17.234375 36.046875 14.484375 37.5 12.238281 37.5 C 11.425781 37.5 10.6875 37.316406 10.042969 36.953125 C 8.964844 36.339844 8.214844 35.277344 7.820312 33.796875 C 7.222656 31.9375 7.34375 29.492188 8.035156 26.753906 C 3.425781 25.214844 0.5 22.785156 0.5 20 C 0.5 17.214844 3.425781 14.785156 8.035156 13.246094 C 7.691406 11.714844 7.472656 10.296875 7.464844 9 C 7.460938 7.976562 7.597656 7.027344 7.820312 6.203125 C 8.214844 4.722656 8.964844 3.660156 10.042969 3.046875 C 10.6875 2.683594 11.425781 2.5 12.234375 2.5 M 9.480469 12.808594 C 11.21875 12.328125 13.148438 11.96875 15.21875 11.75 C 16.410156 10.144531 17.65625 8.699219 18.914062 7.457031 C 16.476562 5.285156 14.105469 3.996094 12.234375 3.996094 C 11.6875 3.996094 11.199219 4.117188 10.785156 4.351562 C 10.066406 4.757812 9.558594 5.511719 9.269531 6.59375 C 8.839844 8.195312 8.9375 10.359375 9.480469 12.808594 M 30.519531 12.804688 C 31.0625 10.359375 31.160156 8.191406 30.730469 6.59375 C 30.441406 5.511719 29.933594 4.761719 29.21875 4.355469 C 28.800781 4.121094 28.3125 4 27.761719 4 C 25.894531 4 23.523438 5.285156 21.089844 7.457031 C 22.34375 8.699219 23.589844 10.144531 24.777344 11.746094 C 26.851562 11.96875 28.78125 12.328125 30.519531 12.804688 M 17.238281 11.582031 C 18.140625 11.53125 19.042969 11.484375 19.984375 11.484375 C 20.921875 11.484375 21.859375 11.53125 22.761719 11.582031 C 21.855469 10.445312 20.929688 9.402344 20 8.480469 C 19.070312 9.402344 18.144531 10.445312 17.238281 11.582031 M 20 27 C 21.378906 27 22.703125 26.941406 23.960938 26.828125 C 24.71875 25.769531 25.453125 24.648438 26.144531 23.46875 C 26.820312 22.320312 27.433594 21.15625 27.980469 20 C 27.433594 18.84375 26.820312 17.679688 26.144531 16.53125 C 25.453125 15.355469 24.71875 14.230469 23.960938 13.171875 C 22.703125 13.058594 21.382812 13 20 13 C 18.617188 13 17.296875 13.058594 16.039062 13.171875 C 15.28125 14.230469 14.542969 15.355469 13.851562 16.53125 C 13.175781 17.679688 12.5625 18.84375 12.015625 20 C 12.5625 21.15625 13.175781 22.320312 13.851562 23.46875 C 14.542969 24.644531 15.277344 25.769531 16.039062 26.828125 C 17.296875 26.941406 18.617188 27 20 27 M 28.773438 18.207031 C 29.335938 16.851562 29.800781 15.523438 30.15625 14.25 C 28.878906 13.898438 27.46875 13.609375 25.941406 13.398438 C 26.457031 14.160156 26.957031 14.953125 27.4375 15.769531 C 27.914062 16.578125 28.359375 17.394531 28.773438 18.207031 M 11.222656 18.207031 C 11.636719 17.394531 12.082031 16.582031 12.558594 15.769531 C 13.039062 14.953125 13.542969 14.160156 14.054688 13.398438 C 12.527344 13.609375 11.117188 13.898438 9.84375 14.25 C 10.195312 15.523438 10.664062 16.851562 11.222656 18.207031 M 31.59375 25.3125 C 35.632812 23.941406 38 21.933594 38 20 C 38 18.066406 35.632812 16.058594 31.59375 14.6875 C 31.117188 16.390625 30.460938 18.179688 29.632812 20 C 30.460938 21.820312 31.117188 23.609375 31.59375 25.3125 M 8.40625 25.308594 C 8.882812 23.609375 9.539062 21.820312 10.363281 20 C 9.539062 18.183594 8.878906 16.390625 8.40625 14.691406 C 4.367188 16.058594 2 18.066406 2 20 C 2 21.933594 4.367188 23.941406 8.40625 25.308594 M 25.941406 26.601562 C 27.46875 26.390625 28.878906 26.101562 30.15625 25.75 C 29.800781 24.476562 29.335938 23.148438 28.773438 21.792969 C 28.359375 22.605469 27.914062 23.417969 27.4375 24.230469 C 26.957031 25.046875 26.457031 25.839844 25.941406 26.601562 M 14.054688 26.601562 C 13.539062 25.839844 13.039062 25.046875 12.558594 24.230469 C 12.082031 23.421875 11.636719 22.605469 11.222656 21.796875 C 10.664062 23.148438 10.199219 24.476562 9.84375 25.75 C 11.117188 26.101562 12.527344 26.390625 14.054688 26.601562 M 12.238281 36 C 14.105469 36 16.476562 34.714844 18.914062 32.542969 C 17.65625 31.300781 16.410156 29.855469 15.21875 28.25 C 13.148438 28.03125 11.21875 27.671875 9.480469 27.191406 C 8.9375 29.640625 8.839844 31.804688 9.269531 33.40625 C 9.558594 34.488281 10.066406 35.242188 10.785156 35.648438 C 11.199219 35.882812 11.6875 36 12.238281 36 M 27.761719 36 C 28.3125 36 28.800781 35.878906 29.21875 35.644531 C 29.933594 35.238281 30.441406 34.488281 30.730469 33.40625 C 31.15625 31.804688 31.058594 29.640625 30.519531 27.195312 C 28.78125 27.671875 26.851562 28.03125 24.777344 28.25 C 23.589844 29.855469 22.34375 31.300781 21.085938 32.542969 C 23.523438 34.714844 25.894531 35.996094 27.761719 36 M 20 31.519531 C 20.929688 30.597656 21.855469 29.554688 22.761719 28.417969 C 21.859375 28.46875 20.980469 28.582031 20.042969 28.582031 C 19.101562 28.582031 18.136719 28.46875 17.238281 28.417969 C 18.140625 29.558594 19.070312 30.597656 20 31.519531 M 12.058594 2.035156 C 11.160156 2.035156 10.515625 2.203125 9.796875 2.613281 C 8.597656 3.292969 7.769531 4.457031 7.335938 6.074219 C 6.855469 7.867188 6.898438 10.226562 7.453125 12.914062 C 2.710938 14.59375 0 17.164062 0 20 C 0 22.839844 2.710938 25.40625 7.453125 27.085938 C 6.898438 29.773438 6.855469 32.132812 7.335938 33.925781 C 7.769531 35.539062 8.597656 36.707031 9.796875 37.386719 C 10.515625 37.796875 11.382812 37.96875 12.28125 37.96875 C 14.523438 37.96875 17.15625 36.703125 20 34.234375 C 22.84375 36.699219 25.519531 37.996094 27.761719 38 C 28.664062 38 29.484375 37.792969 30.203125 37.382812 C 31.402344 36.703125 32.230469 35.539062 32.660156 33.925781 C 33.140625 32.132812 33.101562 29.773438 32.542969 27.085938 C 37.289062 25.40625 40 22.839844 40 20 C 40 17.160156 37.289062 14.59375 32.542969 12.914062 C 33.101562 10.226562 33.140625 7.867188 32.660156 6.074219 C 32.230469 4.460938 31.402344 3.296875 30.203125 2.617188 C 29.484375 2.207031 28.660156 2 27.761719 2 C 25.519531 2 22.84375 3.300781 20 5.765625 C 17.15625 3.300781 14.46875 2.035156 12.222656 2.035156 Z M 9.859375 12.1875 C 9.628906 11.027344 9.472656 9.9375 9.464844 8.984375 C 9.457031 8.121094 9.574219 7.375 9.75 6.722656 C 10.003906 5.777344 10.433594 5.125 11.03125 4.785156 C 11.367188 4.59375 11.78125 4.464844 12.242188 4.464844 C 13.832031 4.464844 15.925781 5.554688 18.183594 7.480469 C 17.074219 8.617188 15.988281 9.890625 14.949219 11.273438 C 13.15625 11.472656 11.449219 11.78125 9.859375 12.1875 Z M 21.820312 7.484375 C 24.078125 5.554688 26.175781 4.5 27.761719 4.5 C 28.226562 4.5 28.632812 4.597656 28.96875 4.789062 C 29.566406 5.128906 29.996094 5.777344 30.246094 6.722656 C 30.683594 8.128906 30.628906 10.003906 30.136719 12.1875 C 28.550781 11.78125 26.839844 11.472656 25.050781 11.273438 C 24.011719 9.890625 22.929688 8.621094 21.820312 7.484375 Z M 18.335938 11.03125 C 18.882812 10.378906 19.441406 9.765625 20 9.191406 C 20.558594 9.765625 21.117188 10.378906 21.664062 11.03125 C 21.105469 11.011719 20.546875 11 20 11 C 19.453125 11 18.898438 11.011719 18.335938 11.03125 Z M 16.3125 13.648438 C 17.515625 13.550781 18.753906 13.480469 20 13.480469 C 21.246094 13.480469 22.484375 13.550781 23.6875 13.648438 C 24.402344 14.660156 25.085938 15.714844 25.714844 16.785156 C 26.324219 17.824219 26.902344 18.902344 27.425781 20 C 26.902344 21.09375 26.324219 22.175781 25.714844 23.214844 C 25.082031 24.289062 24.402344 25.339844 23.6875 26.351562 C 22.484375 26.449219 21.246094 26.582031 20 26.582031 C 18.753906 26.582031 17.515625 26.449219 16.3125 26.347656 C 15.59375 25.339844 14.914062 24.285156 14.28125 23.214844 C 13.671875 22.175781 13.097656 21.097656 12.570312 20 C 13.097656 18.902344 13.671875 17.824219 14.28125 16.785156 C 14.914062 15.710938 15.597656 14.660156 16.3125 13.648438 Z M 28.710938 17.011719 C 28.4375 16.503906 28.15625 16.003906 27.871094 15.515625 C 27.585938 15.03125 27.285156 14.546875 26.976562 14.0625 C 27.863281 14.214844 28.71875 14.394531 29.535156 14.601562 C 29.300781 15.386719 29.023438 16.191406 28.710938 17.011719 Z M 10.464844 14.601562 C 11.277344 14.394531 12.132812 14.214844 13.019531 14.0625 C 12.710938 14.546875 12.414062 15.03125 12.128906 15.515625 C 11.84375 16.003906 11.5625 16.503906 11.285156 17.011719 C 10.972656 16.191406 10.699219 15.386719 10.464844 14.601562 Z M 30.183594 20 C 30.890625 18.417969 31.476562 16.851562 31.925781 15.335938 C 35.378906 16.597656 37.5 18.359375 37.5 20 C 37.5 21.640625 35.378906 23.402344 31.925781 24.664062 C 31.476562 23.144531 30.890625 21.582031 30.183594 20 Z M 8.070312 24.664062 C 4.621094 23.402344 2.5 21.640625 2.5 20 C 2.5 18.359375 4.621094 16.597656 8.070312 15.335938 C 8.523438 16.855469 9.109375 18.417969 9.816406 20 C 9.109375 21.582031 8.523438 23.144531 8.070312 24.664062 Z M 26.976562 25.9375 C 27.285156 25.453125 27.585938 24.96875 27.867188 24.484375 C 28.15625 23.996094 28.4375 23.496094 28.710938 22.988281 C 29.023438 23.808594 29.300781 24.613281 29.535156 25.398438 C 28.71875 25.605469 27.863281 25.785156 26.976562 25.9375 Z M 10.464844 25.398438 C 10.699219 24.613281 10.972656 23.808594 11.285156 22.988281 C 11.558594 23.496094 11.84375 23.996094 12.128906 24.484375 C 12.410156 24.96875 12.710938 25.453125 13.019531 25.9375 C 12.132812 25.785156 11.277344 25.605469 10.464844 25.398438 Z M 12.238281 35.5 C 11.773438 35.5 11.367188 35.402344 11.03125 35.210938 C 10.433594 34.875 10.003906 34.222656 9.753906 33.277344 C 9.335938 31.855469 9.382812 29.980469 9.859375 27.8125 C 11.449219 28.21875 13.15625 28.523438 14.949219 28.722656 C 15.984375 30.105469 17.070312 31.378906 18.183594 32.519531 C 15.925781 34.445312 13.828125 35.503906 12.238281 35.5 Z M 25.050781 28.726562 C 26.839844 28.527344 28.550781 28.21875 30.136719 27.8125 C 30.691406 30.183594 30.734375 32.070312 30.246094 33.277344 C 29.992188 34.222656 29.566406 34.871094 28.96875 35.207031 C 28.632812 35.402344 28.226562 35.496094 27.765625 35.496094 L 27.765625 35.996094 L 27.761719 35.496094 C 26.171875 35.496094 24.074219 34.441406 21.816406 32.515625 C 22.929688 31.382812 24.011719 30.109375 25.050781 28.726562 Z M 20 30.808594 C 19.441406 30.234375 18.882812 29.621094 18.335938 28.96875 C 18.894531 28.988281 19.453125 29 20 29 C 20.546875 29 21.105469 28.988281 21.664062 28.96875 C 21.117188 29.621094 20.558594 30.234375 20 30.808594 Z M 20 30.808594 "/>
</g>
</svg>
