<?xml version="1.0" encoding="UTF-8"?>
<svg xmlns="http://www.w3.org/2000/svg" xmlns:xlink="http://www.w3.org/1999/xlink" viewBox="0 0 32 32" width="32px" height="32px">
<g id="surface145264330">
<path style=" stroke:none;fill-rule:nonzero;fill:rgb(4.313726%,38.431373%,65.882355%);fill-opacity:1;" d="M 10.835938 3.839844 C 10.285156 3.875 9.746094 4.023438 9.25 4.308594 C 8.257812 4.882812 7.65625 5.886719 7.414062 6.984375 C 7.171875 8.082031 7.230469 9.304688 7.472656 10.613281 C 7.503906 10.789062 7.566406 10.980469 7.605469 11.160156 C 7.214844 11.28125 6.808594 11.394531 6.449219 11.53125 C 5.195312 12.015625 4.140625 12.59375 3.347656 13.3125 C 2.554688 14.03125 2 14.957031 2 16 C 2 17.042969 2.554688 17.96875 3.347656 18.6875 C 4.140625 19.40625 5.195312 19.984375 6.449219 20.46875 C 6.839844 20.617188 7.28125 20.742188 7.707031 20.871094 C 7.648438 21.160156 7.566406 21.464844 7.527344 21.746094 C 7.339844 23.039062 7.34375 24.207031 7.585938 25.230469 C 7.828125 26.253906 8.359375 27.175781 9.25 27.691406 C 10.140625 28.207031 11.203125 28.203125 12.210938 27.902344 C 13.21875 27.601562 14.234375 27.019531 15.261719 26.210938 C 15.480469 26.039062 15.703125 25.816406 15.925781 25.621094 C 16.085938 25.769531 16.242188 25.941406 16.402344 26.078125 C 17.414062 26.941406 18.445312 27.601562 19.515625 27.941406 C 20.585938 28.28125 21.757812 28.265625 22.75 27.691406 C 23.742188 27.117188 24.34375 26.113281 24.585938 25.015625 C 24.828125 23.917969 24.769531 22.695312 24.527344 21.386719 C 24.496094 21.210938 24.433594 21.019531 24.394531 20.839844 C 24.785156 20.71875 25.191406 20.605469 25.550781 20.46875 C 26.804688 19.984375 27.859375 19.40625 28.652344 18.6875 C 29.445312 17.96875 30 17.042969 30 16 C 30 14.957031 29.445312 14.03125 28.652344 13.3125 C 27.859375 12.59375 26.804688 12.015625 25.550781 11.53125 C 25.160156 11.382812 24.71875 11.257812 24.292969 11.128906 C 24.351562 10.839844 24.433594 10.535156 24.472656 10.253906 C 24.660156 8.960938 24.65625 7.792969 24.414062 6.769531 C 24.171875 5.746094 23.640625 4.824219 22.75 4.308594 C 21.859375 3.792969 20.796875 3.796875 19.789062 4.097656 C 18.78125 4.398438 17.765625 4.980469 16.738281 5.789062 C 16.519531 5.960938 16.296875 6.183594 16.074219 6.378906 C 15.914062 6.230469 15.757812 6.058594 15.597656 5.921875 C 14.585938 5.058594 13.554688 4.398438 12.484375 4.058594 C 11.949219 3.890625 11.386719 3.804688 10.835938 3.839844 Z M 10.972656 5.824219 C 11.238281 5.808594 11.53125 5.855469 11.878906 5.964844 C 12.574219 6.183594 13.425781 6.695312 14.304688 7.445312 C 14.417969 7.539062 14.53125 7.667969 14.644531 7.769531 C 13.96875 8.492188 13.308594 9.292969 12.664062 10.175781 C 11.5625 10.285156 10.523438 10.449219 9.539062 10.660156 C 9.511719 10.527344 9.460938 10.382812 9.4375 10.253906 C 9.226562 9.117188 9.214844 8.125 9.371094 7.414062 C 9.527344 6.703125 9.800781 6.300781 10.25 6.039062 C 10.476562 5.910156 10.707031 5.839844 10.972656 5.824219 Z M 21.1875 5.886719 C 21.414062 5.898438 21.597656 5.949219 21.75 6.039062 C 22.054688 6.214844 22.3125 6.558594 22.472656 7.230469 C 22.632812 7.902344 22.652344 8.851562 22.492188 9.96875 C 22.460938 10.179688 22.394531 10.421875 22.351562 10.640625 C 21.40625 10.445312 20.414062 10.285156 19.363281 10.179688 C 18.757812 9.332031 18.128906 8.535156 17.480469 7.804688 C 17.644531 7.664062 17.816406 7.488281 17.976562 7.363281 C 18.863281 6.664062 19.699219 6.207031 20.359375 6.011719 C 20.6875 5.914062 20.960938 5.875 21.1875 5.886719 Z M 16.046875 9.207031 C 16.28125 9.472656 16.515625 9.738281 16.746094 10.027344 C 16.496094 10.023438 16.253906 10 16 10 C 15.761719 10 15.539062 10.023438 15.304688 10.027344 C 15.550781 9.730469 15.800781 9.476562 16.046875 9.207031 Z M 16 12 C 16.777344 12 17.535156 12.039062 18.273438 12.089844 C 18.6875 12.707031 19.085938 13.347656 19.464844 14 C 19.839844 14.652344 20.195312 15.316406 20.523438 15.984375 C 20.203125 16.652344 19.855469 17.324219 19.464844 18 C 19.078125 18.671875 18.671875 19.304688 18.257812 19.910156 C 17.523438 19.960938 16.773438 20 16 20 C 15.222656 20 14.464844 19.960938 13.726562 19.910156 C 13.3125 19.292969 12.914062 18.652344 12.535156 18 C 12.160156 17.347656 11.804688 16.683594 11.476562 16.015625 C 11.796875 15.347656 12.144531 14.675781 12.535156 14 C 12.921875 13.328125 13.328125 12.695312 13.742188 12.089844 C 14.476562 12.039062 15.226562 12 16 12 Z M 11.203125 12.371094 C 11.074219 12.585938 10.933594 12.78125 10.804688 13 C 10.675781 13.222656 10.578125 13.441406 10.457031 13.660156 C 10.316406 13.296875 10.195312 12.945312 10.078125 12.59375 C 10.449219 12.515625 10.804688 12.433594 11.203125 12.371094 Z M 20.804688 12.371094 C 21.175781 12.429688 21.503906 12.511719 21.855469 12.582031 C 21.75 12.925781 21.652344 13.257812 21.523438 13.613281 C 21.410156 13.410156 21.3125 13.203125 21.195312 13 C 21.070312 12.785156 20.933594 12.582031 20.804688 12.371094 Z M 23.800781 13.074219 C 24.148438 13.179688 24.519531 13.277344 24.832031 13.398438 C 25.929688 13.820312 26.78125 14.316406 27.304688 14.792969 C 27.828125 15.269531 28 15.660156 28 16 C 28 16.339844 27.828125 16.730469 27.304688 17.207031 C 26.78125 17.683594 25.929688 18.179688 24.832031 18.601562 C 24.542969 18.714844 24.195312 18.804688 23.871094 18.90625 C 23.558594 17.941406 23.160156 16.960938 22.710938 15.976562 C 23.148438 14.984375 23.511719 14.015625 23.800781 13.074219 Z M 8.128906 13.09375 C 8.441406 14.058594 8.839844 15.039062 9.289062 16.023438 C 8.851562 17.015625 8.488281 17.984375 8.199219 18.925781 C 7.851562 18.820312 7.480469 18.722656 7.167969 18.601562 C 6.070312 18.179688 5.21875 17.683594 4.695312 17.207031 C 4.171875 16.730469 4 16.339844 4 16 C 4 15.660156 4.171875 15.269531 4.695312 14.792969 C 5.21875 14.316406 6.070312 13.820312 7.167969 13.398438 C 7.457031 13.285156 7.804688 13.195312 8.128906 13.09375 Z M 16 14 C 14.894531 14 14 14.894531 14 16 C 14 17.105469 14.894531 18 16 18 C 17.105469 18 18 17.105469 18 16 C 18 14.894531 17.105469 14 16 14 Z M 21.542969 18.339844 C 21.683594 18.703125 21.804688 19.054688 21.921875 19.40625 C 21.550781 19.484375 21.195312 19.566406 20.796875 19.628906 C 20.925781 19.414062 21.066406 19.21875 21.195312 19 C 21.324219 18.777344 21.421875 18.558594 21.542969 18.339844 Z M 10.476562 18.386719 C 10.589844 18.589844 10.6875 18.796875 10.804688 19 C 10.929688 19.214844 11.066406 19.417969 11.195312 19.628906 C 10.824219 19.570312 10.496094 19.488281 10.144531 19.417969 C 10.25 19.074219 10.347656 18.742188 10.476562 18.386719 Z M 22.460938 21.339844 C 22.488281 21.472656 22.539062 21.617188 22.5625 21.746094 C 22.773438 22.882812 22.785156 23.875 22.628906 24.585938 C 22.472656 25.296875 22.199219 25.699219 21.75 25.960938 C 21.300781 26.222656 20.816406 26.253906 20.121094 26.035156 C 19.425781 25.816406 18.574219 25.304688 17.695312 24.554688 C 17.582031 24.460938 17.46875 24.332031 17.355469 24.230469 C 18.03125 23.507812 18.691406 22.707031 19.335938 21.824219 C 20.4375 21.714844 21.476562 21.550781 22.460938 21.339844 Z M 9.648438 21.359375 C 10.59375 21.554688 11.585938 21.714844 12.636719 21.820312 C 13.242188 22.667969 13.871094 23.464844 14.519531 24.195312 C 14.355469 24.335938 14.183594 24.511719 14.023438 24.636719 C 13.136719 25.335938 12.300781 25.792969 11.640625 25.988281 C 10.980469 26.183594 10.554688 26.136719 10.25 25.960938 C 9.945312 25.785156 9.6875 25.441406 9.527344 24.769531 C 9.367188 24.097656 9.347656 23.148438 9.507812 22.03125 C 9.539062 21.820312 9.605469 21.578125 9.648438 21.359375 Z M 15.253906 21.972656 C 15.503906 21.976562 15.746094 22 16 22 C 16.238281 22 16.460938 21.976562 16.695312 21.972656 C 16.449219 22.269531 16.199219 22.523438 15.953125 22.792969 C 15.71875 22.527344 15.484375 22.261719 15.253906 21.972656 Z M 15.253906 21.972656 "/>
</g>
</svg>
